{"title":"What If 2010 BRRip XviD Ac3 Feel-Free","uid":7020293,"size":1444475920,"categoryP":"video","categoryS":"movies","magnet":"?xt=urn:btih:b1d39b1bc3137f77758f5fff3331706887c1a53f&amp;dn=What+If+2010+BRRip+XviD+Ac3+Feel-Free&amp;tr=udp%3A%2F%2Ftracker.openbittorrent.com%3A80&amp;tr=udp%3A%2F%2Fopen.demonii.com%3A1337&amp;tr=udp%3A%2F%2Ftracker.coppersurfer.tk%3A6969&amp;tr=udp%3A%2F%2Fexodus.desync.com%3A6969","seeders":8,"leechers":1,"uploader":null,"files":8,"time":1328815174,"description":"Genre:Comedy\nLanguage:English\nIMDb:http://www.imdb.com/title/tt1468387/\nSource:1080p BluRay x264-Japhson Thanks!\nEncoder:Tony\n\nFormat : AVI\nFormat/Info : Audio Video Interleave\nFile size : 1.34 GiB\nDuration : 1h 58mn\nOverall bit rate : 1 625 Kbps\n\nVideo\nID : 0\nFormat : MPEG-4 Visual\nFormat profile : Advanced Simple@L5\nFormat settings, BVOP : 1\nFormat settings, QPel : No\nFormat settings, GMC : No warppoints\nFormat settings, Matrix : Default (H.263)\nCodec ID : XVID\nCodec ID/Hint : XviD\nDuration : 1h 58mn\nBit rate : 1 168 Kbps\nWidth : 640 pixels\nHeight : 360 pixels\nDisplay aspect ratio : 16:9\nFrame rate : 23.976 fps\nColor space : YUV\nChroma subsampling : 4:2:0\nBit depth : 8 bits\nScan type : Progressive\nCompression mode : Lossy\nBits/(Pixel*Frame) : 0.211\nStream size : 989 MiB (72%)\nWriting library : XviD 1.2.1 (UTC 2008-12-04)\n\nAudio\nID : 1\nFormat : AC-3\nFormat/Info : Audio Coding 3\nMode extension : CM (complete main)\nCodec ID : 2000\nDuration : 1h 58mn\nBit rate mode : Constant\nBit rate : 448 Kbps\nChannel(s) : 6 channels\nChannel positions : Front: L C R, Side: L R, LFE\nSampling rate : 48.0 KHz\nBit depth : 16 bits\nCompression mode : Lossy\nStream size : 379 MiB (28%)\nAlignment : Aligned on interleaves\nInterleave, duration : 42 ms (1.00 video frame)\nInterleave, preload duration : 512 ms\n\n\nPlot:\n5 years ago, Ben Walker left his girlfriend and his ministry calling for a business opportunity. Now with a high-paying career and a trophy fiancÃŽËœ.\n","torrent":{"xt":"urn:btih:b1d39b1bc3137f77758f5fff3331706887c1a53f","amp;dn":"What+If+2010+BRRip+XviD+Ac3+Feel-Free","amp;tr":["udp%3A%2F%2Ftracker.openbittorrent.com%3A80","udp%3A%2F%2Fopen.demonii.com%3A1337","udp%3A%2F%2Ftracker.coppersurfer.tk%3A6969","udp%3A%2F%2Fexodus.desync.com%3A6969"],"infoHash":"b1d39b1bc3137f77758f5fff3331706887c1a53f","infoHashBuffer":{"type":"Buffer","data":[177,211,155,27,195,19,127,119,117,143,95,255,51,49,112,104,135,193,165,63]},"announce":[],"urlList":[]}}